<?xml version='1.0' encoding='utf-8'?>
<svg xmlns="http://www.w3.org/2000/svg" width="1920" height="1080" viewBox="0 0 1920 1080" data-theme="dark">
  <style>
        @font-face {
            font-family: 'Inter';
            src: url('assets/fonts/Inter-Regular.ttf') format('truetype');
            font-weight: 400;
            font-style: normal;
            font-display: swap;
        }
        @font-face {
            font-family: 'Inter';
            src: url('assets/fonts/Inter-Bold.ttf') format('truetype');
            font-weight: 600;
            font-style: normal;
            font-display: swap;
        }
        @font-face {
            font-family: 'Inter';
            src: url('assets/fonts/Inter-Bold.ttf') format('truetype');
            font-weight: 800;
            font-style: normal;
            font-display: swap;
        }
        
:root {
    --background: #0f172a;
    --panel: #1e293b;
    --primary-text: #f1f5f9;
    --muted-text: #94a3b8;
    --inverse-text: #0f172a;
    --border: #334155;
    --shadow-color: #000000;
    --icon-pad-bg: #1e293b;
    --art-glow: #7dd3fc;
    --art-glow-opacity: 0.18;
    --art-sheen: #ffffff;
    --art-sheen-opacity: 0.18;
    --art-shadow: #000000;
    --art-shadow-opacity: 0.28;
    --art-muted-line: #64748b;
    --art-panel-tint: #1e293b;
    --font-family: 'Inter', 'Segoe UI', 'Kalam', Roboto, Helvetica, Arial, sans-serif;
    --radius-xl: 16px;
    --font-family-headline: 'Inter', 'Segoe UI', 'Kalam', Roboto, Helvetica, Arial, sans-serif;
    --font-family-body: 'Inter', 'Segoe UI', 'Kalam', Roboto, Helvetica, Arial, sans-serif;
    --font-heading: 'Inter', 'Segoe UI', 'Kalam', Roboto, Helvetica, Arial, sans-serif;
    --font-body: 'Inter', 'Segoe UI', 'Kalam', Roboto, Helvetica, Arial, sans-serif;
    --font-size-h1: 56px;
    --font-size-h2: 40px;
    --font-size-h3: 28px;
    --font-size-body: 24px;
    --font-size-caption: 18px;
    --secondary-text: var(--muted-text);
    --panel-border: var(--border);
    --font-weight-normal: 400;
    --font-weight-medium: 500;
    --font-weight-semibold: 600;
    --font-weight-bold: 700;
    --spacing-gutter-pct: 0.07;
    --spacing-top-pct: 0.15;
    --spacing-bottom-pct: 0.07;
    --spacing-title-y-pct: 0.055;
    --accent-1: #a5b4fc;
    --accent-2: #34d399;
    --accent-3: #f472b6;
    --accent-4: #fbbf24;
    --accent-5: #38bdf8;
    --accent-6: #c084fc;
    --accent-7: #f87171;
    --accent-8: #2dd4bf;
    --accent-9: #fb923c;
    --accent-10: #e879f9;
}
:root[data-theme="dark"] {
    --background: #0f172a;
    --panel: #1e293b;
    --primary-text: #f1f5f9;
    --muted-text: #94a3b8;
    --inverse-text: #0f172a;
    --border: #334155;
    --shadow-color: #000000;
    --icon-pad-bg: #1e293b;
    --art-glow: #7dd3fc;
    --art-glow-opacity: 0.18;
    --art-sheen: #ffffff;
    --art-sheen-opacity: 0.18;
    --art-shadow: #000000;
    --art-shadow-opacity: 0.28;
    --art-muted-line: #64748b;
    --art-panel-tint: #1e293b;
    --accent-1: #a5b4fc;
    --accent-2: #34d399;
    --accent-3: #f472b6;
    --accent-4: #fbbf24;
    --accent-5: #38bdf8;
    --accent-6: #c084fc;
    --accent-7: #f87171;
    --accent-8: #2dd4bf;
    --accent-9: #fb923c;
    --accent-10: #e879f9;
}
:root[data-theme="light"] {
    --background: #f8fafc;
    --panel: #ffffff;
    --primary-text: #0f172a;
    --muted-text: #64748b;
    --inverse-text: #ffffff;
    --border: #e2e8f0;
    --shadow-color: #000000;
    --icon-pad-bg: #1e293b;
    --art-glow: #0891b2;
    --art-glow-opacity: 0.10;
    --art-sheen: #ffffff;
    --art-sheen-opacity: 0.34;
    --art-shadow: #0f172a;
    --art-shadow-opacity: 0.14;
    --art-muted-line: #94a3b8;
    --art-panel-tint: #f1f5f9;
    --accent-1: #4f46e5;
    --accent-2: #059669;
    --accent-3: #db2777;
    --accent-4: #d97706;
    --accent-5: #0284c7;
    --accent-6: #7c3aed;
    --accent-7: #dc2626;
    --accent-8: #0d9488;
    --accent-9: #ea580c;
    --accent-10: #c026d3;
}</style>
  <rect x="0" y="0" width="1.92E+3" height="1.08E+3" fill="#252a34" stroke="none" id="programmatic_background"/>
  <line id="HEADER_DECOR" x1="960.0" x2="1080.0" y1="85.0" y2="85.0" stroke="var(--accent-1)" stroke-width="6" stroke-linecap="round"/>
  <defs>
    <pattern id="svgcc53e4eb-napkin-hatch" patternUnits="userSpaceOnUse" width="12" height="12">
      <path d="M -3 12 L 12 -3 M 0 15 L 15 0" fill="none" stroke="var(--primary-text)" stroke-width="1" stroke-opacity="0.05"/>
    </pattern>
    <filter id="svgcc53e4eb-shadow" x="-30%" y="-30%" width="160%" height="160%">
      <feDropShadow dx="0" dy="2" stdDeviation="3" flood-color="#000000" flood-opacity="0.08"/>
      <feDropShadow dx="0" dy="6" stdDeviation="10" flood-color="#000000" flood-opacity="0.12"/>
    </filter>
    <marker id="svgcc53e4eb-arrowhead" markerWidth="10" markerHeight="10" refX="9" refY="5" orient="auto">
      <path d="M 0 0 L 10 5 L 0 10 Z" fill="var(--accent-1)"/>
    </marker>
    <filter id="svgcc53e4eb-text-glow" x="-20%" y="-20%" width="140%" height="140%">
      <feDropShadow dx="0" dy="0" stdDeviation="2" flood-color="#000000" flood-opacity="0.4"/>
    </filter>
    <radialGradient id="svgcc53e4eb-universal-edge-vignette" cx="50%" cy="50%" r="72%">
      <stop offset="0%" stop-color="var(--background)" stop-opacity="0"/>
      <stop offset="72%" stop-color="var(--background)" stop-opacity="0.12"/>
      <stop offset="100%" stop-color="var(--primary-text)" stop-opacity="0.08"/>
    </radialGradient>
    <linearGradient id="svgcc53e4eb-universal-surface-sheen" x1="0%" y1="0%" x2="100%" y2="100%">
      <stop offset="0%" stop-color="var(--art-sheen)" stop-opacity="var(--art-sheen-opacity)"/>
      <stop offset="46%" stop-color="var(--art-sheen)" stop-opacity="0.035"/>
      <stop offset="100%" stop-color="var(--art-panel-tint)" stop-opacity="0.14"/>
    </linearGradient>
    <radialGradient id="svgcc53e4eb-universal-icon-aura" cx="50%" cy="42%" r="64%">
      <stop offset="0%" stop-color="var(--art-glow)" stop-opacity="var(--art-glow-opacity)"/>
      <stop offset="100%" stop-color="var(--background)" stop-opacity="0"/>
    </radialGradient>
    <linearGradient id="svgcc53e4eb-card-panel-sheen" x1="0%" y1="0%" x2="100%" y2="100%">
      <stop offset="0%" stop-color="var(--inverse-text)" stop-opacity="0.20"/>
      <stop offset="48%" stop-color="var(--inverse-text)" stop-opacity="0.04"/>
      <stop offset="100%" stop-color="var(--background)" stop-opacity="0.16"/>
    </linearGradient>
    <radialGradient id="svgcc53e4eb-card-icon-glow" cx="50%" cy="35%" r="62%">
      <stop offset="0%" stop-color="var(--inverse-text)" stop-opacity="0.22"/>
      <stop offset="100%" stop-color="var(--background)" stop-opacity="0"/>
    </radialGradient>
  </defs>
  <rect width="100%" height="100%" fill="var(--background)" id="CANVAS_BG"/>
  <rect width="100%" height="100%" fill="url(#svgcc53e4eb-napkin-hatch)"/>
  <rect id="UNIVERSAL_EDGE_VIGNETTE" width="100%" height="100%" fill="url(#svgcc53e4eb-universal-edge-vignette)" opacity="0.62"/>
  <text id="TITLE" x="960.0" y="59" font-size="48" font-weight="700" fill="#f1f5f9" text-anchor="middle" style="font-size: 60px; font-family: Inter, Segoe UI, Kalam, Roboto, Helvetica, Arial, sans-serif; font-weight: 700; letter-spacing:-1.2px;" data-final-font-size="60">
    <tspan x="960.0" dy="68.00px">The Four Revenue Factors</tspan>
  </text>
  <rect id="TITLE_FRAME" x="134" y="25" width="1652" height="70" fill="none"/>
  <g id="DIAGRAM_MAIN">
    <rect id="ITEM_1_BG" x="485" y="170" width="480" height="410" rx="16" fill="var(--accent-3)" stroke="var(--accent-1)" stroke-width="2" filter="url(#svgcc53e4eb-shadow)" fill-opacity="0.4"/>
    <rect x="485" y="170" width="480" height="410" rx="16" fill="url(#svgcc53e4eb-card-panel-sheen)" opacity="0.88"/>
    <rect x="485" y="186" width="460" height="12" fill="var(--accent-1)"/>
    <rect id="ITEM_1_HEAD_FRAME" x="500" y="288" width="450" height="96" fill="none"/>
    <rect id="ITEM_1_BODY_FRAME" x="500" y="382" width="450" height="168" fill="none"/>
    <circle id="ITEM_1_PAD" cx="715" cy="231" r="55" fill="var(--icon-pad-bg)" stroke="var(--primary-text)" opacity="0.9" fill-opacity="0.9" stroke-width="2"/>
    <circle cx="715" cy="231" r="44" fill="none" stroke="var(--accent-1)" stroke-width="3" stroke-dasharray="6 4"/>
    <circle id="ITEM_1_BADGE" cx="715" cy="231" r="43" fill="var(--accent-1)" stroke="var(--background)" stroke-width="4" fill-opacity="0.35" opacity="0.85" stroke-opacity="0.75"/>
    <g id="ITEM_1_ICON" transform="translate(682, 198)" data-icon-size="66">
      <g transform="translate(-9.899999999999999,-9.899999999999999) scale(6.128571428571428)" vector-effect="non-scaling-stroke" stroke-width="2.50" stroke-linecap="round" stroke-linejoin="round" stroke-opacity="1.0">
        <path id="Vector 2513" stroke="#ffffff" d="m6 3 1.46436 -1.46447c1.38071 -1.380708 3.61924 -1.380708 5.00004 0 1.3807 1.38072 1.3807 3.61929 0 5.00001L11 8" vector-effect="non-scaling-stroke" fill="none"/>
        <path id="Vector 2514" stroke="#ffffff" d="m7.99989 11 -1.46436 1.4645c-1.38071 1.3807 -3.61928 1.3807 -5 0 -1.380709 -1.3807 -1.380708 -3.61932 0 -5.00004L2.99989 6" vector-effect="non-scaling-stroke" fill="none"/>
        <path id="Vector 2515" stroke="#ffffff" d="M9 5 5 9" vector-effect="non-scaling-stroke" fill="none"/>
      </g>
    </g>
    <text id="ITEM_1_HEAD" x="725.0" y="288.0" font-weight="700" font-size="26" fill="var(--accent-3)" text-anchor="middle" data-bg-id="ITEM_1_BG" fill-opacity="1.0" stroke="none" style="font-size: 30px; font-family: Inter, Segoe UI, Kalam, Roboto, Helvetica, Arial, sans-serif; font-weight: 700; letter-spacing:-0.4px;" data-final-font-size="30">
      <tspan x="725.0" dy="56.25px">Click Through Rate</tspan>
    </text>
    <text id="ITEM_1_BODY" x="725.0" y="382.0" font-size="21" fill="var(--primary-text)" text-anchor="middle" data-bg-id="ITEM_1_BG" style="font-size: 26px; font-family: Inter, Segoe UI, Kalam, Roboto, Helvetica, Arial, sans-serif; font-weight: 400;" data-final-font-size="26">
      <tspan x="725.0" dy="42.44px">Visitors move from page to</tspan>
      <tspan x="725.0" dy="29.90px">affiliate link</tspan>
    </text>
    <rect id="ITEM_2_BG" x="975" y="170" width="480" height="410" rx="16" fill="var(--accent-4)" stroke="var(--accent-2)" stroke-width="2" filter="url(#svgcc53e4eb-shadow)" fill-opacity="0.4"/>
    <rect x="975" y="170" width="480" height="410" rx="16" fill="url(#svgcc53e4eb-card-panel-sheen)" opacity="0.88"/>
    <rect x="975" y="186" width="460" height="12" fill="var(--accent-2)"/>
    <rect id="ITEM_2_HEAD_FRAME" x="990" y="288" width="450" height="96" fill="none"/>
    <rect id="ITEM_2_BODY_FRAME" x="990" y="382" width="450" height="168" fill="none"/>
    <circle id="ITEM_2_PAD" cx="1205" cy="231" r="55" fill="var(--icon-pad-bg)" stroke="var(--primary-text)" opacity="0.9" fill-opacity="0.9" stroke-width="2"/>
    <circle cx="1205" cy="231" r="44" fill="none" stroke="var(--accent-2)" stroke-width="3" stroke-dasharray="6 4"/>
    <circle id="ITEM_2_BADGE" cx="1205" cy="231" r="43" fill="var(--accent-2)" stroke="var(--background)" stroke-width="4" fill-opacity="0.35" opacity="0.85" stroke-opacity="0.75"/>
    <g id="ITEM_2_ICON" transform="translate(1172, 198)" data-icon-size="66">
      <g transform="translate(-16.028571428571425,-17.560714285714283) scale(3.064285714285714)">
        <path d="M7.17 21.7566L22.94 23L23.9824 19H24.5182C25.8896 19 27.0125 20.3403 27.0125 21.8852V22C27.0125 23.6075 25.8089 25 24.3779 25H3C2.45344 25 2 25.382 2 25.9562C2 26.5303 2.44718 27 2.99374 27H24.4188C26.943 27 29 24.7557 29 22V21.8852C29 19.1921 26.9926 17 24.5182 17H24.5035L24.5066 16.9884C24.7278 16.9397 24.9 16.7438 24.9 16.5192V16.4808C24.9 16.337 24.8344 16.2097 24.7322 16.1223L27.37 6H5.2C3.44 6 2 7.43242 2 9.25278L2.52 17.7478C2.67 20.2645 5.04 21.5875 7.17 21.7566ZM21.6161 16H20V12H22.6046L21.6161 16ZM22.8518 11H20V8.00704L21.95 8.00936C22.79 8.00936 23.4 8.78525 23.2 9.59099L22.8518 11ZM19 8.00586V11H14.62V8.00065L19 8.00586ZM13.62 7.99946V11H9.02002V7.994L13.62 7.99946ZM8.02002 7.99281V11H4.11139L4 9.1931C4 8.52662 4.54 7.98947 5.21 7.98947L8.02002 7.99281ZM4.17303 12H8.02002V16H4.41961L4.17303 12ZM4.48126 17H8.02002V19.8306L7.34 19.7771C6 19.6676 4.6 18.9017 4.52 17.6284L4.48126 17ZM9.02002 19.9094V17H13.62V20.2716L9.02002 19.9094ZM14.62 20.3504V17H19V20.62C19 20.6457 19.002 20.671 19.0058 20.6957L14.62 20.3504ZM20 20.6002V17H21.3689L20.69 19.7472C20.5958 20.1344 20.3361 20.4392 20 20.6002ZM14.62 12H19V16H14.62V12ZM9.02002 12H13.62V16H9.02002V12Z" fill="#9B9B9B"/>
        <path d="M22.8035 23.9707C22.2419 23.839 21.8923 23.2818 22.03 22.7448L26.9145 3.76832C27.0522 3.23134 27.635 2.897 28.1965 3.02871C28.7581 3.16042 29.1077 3.71766 28.97 4.25463L24.0855 23.2311C23.9478 23.7782 23.3756 24.1024 22.8035 23.9707Z" fill="#BEBEBE"/>
        <path d="M27 5H29C29.55 5 30 4.55 30 4C30 3.45 29.55 3 29 3H27C26.45 3 26 3.45 26 4C26 4.55 26.45 5 27 5Z" fill="#0084CE"/>
        <path d="M5.5 30C6.32843 30 7 29.3284 7 28.5C7 27.6716 6.32843 27 5.5 27C4.67157 27 4 27.6716 4 28.5C4 29.3284 4.67157 30 5.5 30Z" fill="#0084CE"/>
        <path d="M23.5 30C24.3284 30 25 29.3284 25 28.5C25 27.6716 24.3284 27 23.5 27C22.6716 27 22 27.6716 22 28.5C22 29.3284 22.6716 30 23.5 30Z" fill="#0084CE"/>
      </g>
    </g>
    <text id="ITEM_2_HEAD" x="1215.0" y="288.0" font-weight="700" font-size="26" fill="var(--accent-4)" text-anchor="middle" data-bg-id="ITEM_2_BG" fill-opacity="1.0" stroke="none" style="font-size: 30px; font-family: Inter, Segoe UI, Kalam, Roboto, Helvetica, Arial, sans-serif; font-weight: 700; letter-spacing:-0.4px;" data-final-font-size="30">
      <tspan x="1215.0" dy="56.25px">Merchant Conversion</tspan>
    </text>
    <text id="ITEM_2_BODY" x="1215.0" y="382.0" font-size="21" fill="var(--primary-text)" text-anchor="middle" data-bg-id="ITEM_2_BG" style="font-size: 26px; font-family: Inter, Segoe UI, Kalam, Roboto, Helvetica, Arial, sans-serif; font-weight: 400;" data-final-font-size="26">
      <tspan x="1215.0" dy="42.44px">Clicks turn into completed</tspan>
      <tspan x="1215.0" dy="29.90px">sales actions</tspan>
    </text>
    <rect id="ITEM_3_BG" x="485" y="600" width="480" height="410" rx="16" fill="var(--accent-5)" stroke="var(--accent-3)" stroke-width="2" filter="url(#svgcc53e4eb-shadow)" fill-opacity="0.4"/>
    <rect x="485" y="600" width="480" height="410" rx="16" fill="url(#svgcc53e4eb-card-panel-sheen)" opacity="0.88"/>
    <rect x="485" y="616" width="460" height="12" fill="var(--accent-3)"/>
    <rect id="ITEM_3_HEAD_FRAME" x="500" y="718" width="450" height="96" fill="none"/>
    <rect id="ITEM_3_BODY_FRAME" x="500" y="812" width="450" height="168" fill="none"/>
    <circle id="ITEM_3_PAD" cx="715" cy="661" r="55" fill="var(--icon-pad-bg)" stroke="var(--primary-text)" opacity="0.9" fill-opacity="0.9" stroke-width="2"/>
    <circle cx="715" cy="661" r="44" fill="none" stroke="var(--accent-3)" stroke-width="3" stroke-dasharray="6 4"/>
    <circle id="ITEM_3_BADGE" cx="715" cy="661" r="43" fill="var(--accent-3)" stroke="var(--background)" stroke-width="4" fill-opacity="0.35" opacity="0.85" stroke-opacity="0.75"/>
    <g id="ITEM_3_ICON" transform="translate(682, 628)" data-icon-size="66">
      <g transform="translate(-15.581696428571423,-16.028571428571425) scale(3.064285714285714)">
        <path fill-rule="evenodd" clip-rule="evenodd" d="M17.44 3.385C17.77 3.765 18.33 3.835 18.74 3.545C19.54 2.975 20.58 3.835 20.17 4.715L17.75 7.485H13.88L11.44 4.685C11.03 3.795 12.07 2.935 12.87 3.505L12.94 3.555C13.35 3.845 13.91 3.765 14.23 3.385L15.1 2.345C15.48 1.885 16.19 1.885 16.57 2.345L17.44 3.385ZM4 21.2249C4 14.6849 9.3 9.38489 15.84 9.38489C22.38 9.38489 27.68 14.6849 27.67 21.2249C27.67 26.0549 23.75 29.9749 18.92 29.9749H12.75C7.92 29.9749 4 26.0549 4 21.2249Z" fill="#F3C07B"/>
        <path fill-rule="evenodd" clip-rule="evenodd" d="M14.12 7.46484H17.56C18.17 7.46484 18.67 7.96484 18.67 8.57484C18.67 9.18484 18.17 9.68484 17.56 9.68484H14.12C13.51 9.68484 13.01 9.18484 13.01 8.57484C13.01 7.96484 13.51 7.46484 14.12 7.46484ZM15.8401 19.3449H15.9101C17.4101 19.3849 18.6101 20.6049 18.6101 22.1049C18.6101 23.3849 17.7401 24.4549 16.5601 24.7749V25.8949C16.5601 26.2949 16.2401 26.6149 15.8401 26.6149C15.4401 26.6149 15.1201 26.2949 15.1201 25.8949V24.7749C13.9401 24.4549 13.0701 23.3849 13.0701 22.1049C13.0701 21.7049 13.3901 21.3849 13.7901 21.3849C14.1901 21.3849 14.5101 21.7049 14.5101 22.1049C14.5101 22.8449 15.1001 23.4349 15.8301 23.4349C16.5601 23.4349 17.1601 22.8349 17.1601 22.1049C17.1601 21.3749 16.5601 20.7749 15.8301 20.7749H15.7601C14.2701 20.7349 13.0701 19.5149 13.0701 18.0149C13.0701 16.7349 13.9401 15.6649 15.1201 15.3449V14.2249C15.1201 13.8249 15.4401 13.5049 15.8401 13.5049C16.2401 13.5049 16.5601 13.8249 16.5601 14.2249V15.3449C17.7401 15.6649 18.6101 16.7349 18.6101 18.0149C18.6101 18.4149 18.2901 18.7349 17.8901 18.7349C17.4901 18.7349 17.1701 18.4149 17.1701 18.0149C17.1701 17.2849 16.5701 16.6849 15.8401 16.6849C15.1101 16.6849 14.5101 17.2849 14.5101 18.0149C14.5101 18.7449 15.1101 19.3449 15.8401 19.3449Z" fill="#8C5543"/>
      </g>
    </g>
    <text id="ITEM_3_HEAD" x="725.0" y="718.0" font-weight="700" font-size="26" fill="var(--accent-5)" text-anchor="middle" data-bg-id="ITEM_3_BG" fill-opacity="1.0" stroke="none" style="font-size: 30px; font-family: Inter, Segoe UI, Kalam, Roboto, Helvetica, Arial, sans-serif; font-weight: 700; letter-spacing:-0.4px;" data-final-font-size="30">
      <tspan x="725.0" dy="56.25px">Average Commission</tspan>
    </text>
    <text id="ITEM_3_BODY" x="725.0" y="812.0" font-size="21" fill="var(--primary-text)" text-anchor="middle" data-bg-id="ITEM_3_BG" style="font-size: 26px; font-family: Inter, Segoe UI, Kalam, Roboto, Helvetica, Arial, sans-serif; font-weight: 400;" data-final-font-size="26">
      <tspan x="725.0" dy="42.44px">Sales generate specific</tspan>
      <tspan x="725.0" dy="29.90px">payout values</tspan>
    </text>
    <rect id="ITEM_4_BG" x="975" y="600" width="480" height="410" rx="16" fill="var(--accent-6)" stroke="var(--accent-4)" stroke-width="2" filter="url(#svgcc53e4eb-shadow)" fill-opacity="0.4"/>
    <rect x="975" y="600" width="480" height="410" rx="16" fill="url(#svgcc53e4eb-card-panel-sheen)" opacity="0.88"/>
    <rect x="975" y="616" width="460" height="12" fill="var(--accent-4)"/>
    <rect id="ITEM_4_HEAD_FRAME" x="990" y="718" width="450" height="96" fill="none"/>
    <rect id="ITEM_4_BODY_FRAME" x="990" y="812" width="450" height="168" fill="none"/>
    <circle id="ITEM_4_PAD" cx="1205" cy="661" r="55" fill="var(--icon-pad-bg)" stroke="var(--primary-text)" opacity="0.9" fill-opacity="0.9" stroke-width="2"/>
    <circle cx="1205" cy="661" r="44" fill="none" stroke="var(--accent-4)" stroke-width="3" stroke-dasharray="6 4"/>
    <circle id="ITEM_4_BADGE" cx="1205" cy="661" r="43" fill="var(--accent-4)" stroke="var(--background)" stroke-width="4" fill-opacity="0.35" opacity="0.85" stroke-opacity="0.75"/>
    <g id="ITEM_4_ICON" transform="translate(1172, 628)" data-icon-size="66">
      <g transform="translate(-13.8,-13.799999999999999) scale(3.9)" vector-effect="non-scaling-stroke" stroke-width="2.50" stroke-linecap="round" stroke-linejoin="round" stroke-opacity="1.0">
        <path d="M14 13V8.5C14 7 15 7 15 5a3 3 0 0 0-6 0c0 2 1 2 1 3.5V13" vector-effect="non-scaling-stroke" fill="none" stroke="#ffffff"/>
        <path d="M20 15.5a2.5 2.5 0 0 0-2.5-2.5h-11A2.5 2.5 0 0 0 4 15.5V17a1 1 0 0 0 1 1h14a1 1 0 0 0 1-1z" vector-effect="non-scaling-stroke" fill="none" stroke="#ffffff"/>
        <path d="M5 22h14" vector-effect="non-scaling-stroke" fill="none" stroke="#ffffff"/>
      </g>
    </g>
    <text id="ITEM_4_HEAD" x="1215.0" y="718.0" font-weight="700" font-size="26" fill="var(--accent-6)" text-anchor="middle" data-bg-id="ITEM_4_BG" fill-opacity="1.0" stroke="none" style="font-size: 30px; font-family: Inter, Segoe UI, Kalam, Roboto, Helvetica, Arial, sans-serif; font-weight: 700; letter-spacing:-0.4px;" data-final-font-size="30">
      <tspan x="1215.0" dy="56.25px">Approval Rate</tspan>
    </text>
    <text id="ITEM_4_BODY" x="1215.0" y="812.0" font-size="21" fill="var(--primary-text)" text-anchor="middle" data-bg-id="ITEM_4_BG" style="font-size: 26px; font-family: Inter, Segoe UI, Kalam, Roboto, Helvetica, Arial, sans-serif; font-weight: 400;" data-final-font-size="26">
      <tspan x="1215.0" dy="42.44px">Tracked revenue survives</tspan>
      <tspan x="1215.0" dy="29.90px">fraud checks</tspan>
    </text>
  </g>
</svg>
